<mxfile host="65bd71144e">
    <diagram id="tPkex4Xwo_ldkRDcLCxH" name="Page-1">
        <mxGraphModel dx="989" dy="549" grid="1" gridSize="10" guides="1" tooltips="1" connect="1" arrows="1" fold="1" page="1" pageScale="1" pageWidth="1169" pageHeight="827" math="0" shadow="0">
            <root>
                <mxCell id="0"/>
                <mxCell id="1" parent="0"/>
                <mxCell id="byKUF5kAsZpEWGFSxz35-10" style="rounded=1;orthogonalLoop=1;jettySize=auto;html=1;endArrow=blockThin;endFill=1;dashed=1;strokeWidth=1;fontFamily=varela round;fontSize=14;fillColor=#f5f5f5;strokeColor=#808080;" parent="1" source="byKUF5kAsZpEWGFSxz35-1" target="byKUF5kAsZpEWGFSxz35-7" edge="1">
                    <mxGeometry relative="1" as="geometry"/>
                </mxCell>
                <mxCell id="byKUF5kAsZpEWGFSxz35-34" style="rounded=1;orthogonalLoop=1;jettySize=auto;html=1;entryX=0;entryY=0.5;entryDx=0;entryDy=0;dashed=1;endArrow=blockThin;endFill=1;strokeWidth=2;fontFamily=varela round;fontSize=14;fontColor=#000000;exitX=1;exitY=0.5;exitDx=0;exitDy=0;fillColor=#aa00ff;strokeColor=#7700CC;edgeStyle=elbowEdgeStyle;" parent="1" source="byKUF5kAsZpEWGFSxz35-1" target="byKUF5kAsZpEWGFSxz35-6" edge="1">
                    <mxGeometry relative="1" as="geometry">
                        <Array as="points">
                            <mxPoint x="240" y="240"/>
                        </Array>
                    </mxGeometry>
                </mxCell>
                <mxCell id="byKUF5kAsZpEWGFSxz35-1" value="Event A" style="rounded=1;whiteSpace=wrap;html=1;fillColor=#dae8fc;strokeColor=#6c8ebf;fontFamily=varela round;fontSize=14;" parent="1" vertex="1">
                    <mxGeometry x="80" y="100" width="120" height="40" as="geometry"/>
                </mxCell>
                <mxCell id="byKUF5kAsZpEWGFSxz35-11" style="rounded=1;orthogonalLoop=1;jettySize=auto;html=1;entryX=0;entryY=0.5;entryDx=0;entryDy=0;endArrow=blockThin;endFill=1;dashed=1;strokeWidth=1;fontFamily=varela round;fontSize=14;fillColor=#f5f5f5;strokeColor=#808080;" parent="1" source="byKUF5kAsZpEWGFSxz35-2" target="byKUF5kAsZpEWGFSxz35-8" edge="1">
                    <mxGeometry relative="1" as="geometry"/>
                </mxCell>
                <mxCell id="byKUF5kAsZpEWGFSxz35-19" style="orthogonalLoop=1;jettySize=auto;html=1;entryX=0;entryY=0.5;entryDx=0;entryDy=0;endArrow=blockThin;endFill=1;dashed=1;strokeWidth=1;fontFamily=varela round;fontSize=14;exitX=1;exitY=0.5;exitDx=0;exitDy=0;fillColor=#f5f5f5;strokeColor=#808080;edgeStyle=entityRelationEdgeStyle;rounded=1;" parent="1" source="byKUF5kAsZpEWGFSxz35-2" target="byKUF5kAsZpEWGFSxz35-7" edge="1">
                    <mxGeometry relative="1" as="geometry"/>
                </mxCell>
                <mxCell id="byKUF5kAsZpEWGFSxz35-33" style="rounded=1;orthogonalLoop=1;jettySize=auto;html=1;entryX=0;entryY=0.5;entryDx=0;entryDy=0;dashed=1;endArrow=blockThin;endFill=1;strokeWidth=2;fontFamily=varela round;fontSize=14;fontColor=#000000;exitX=1;exitY=0.5;exitDx=0;exitDy=0;fillColor=#aa00ff;strokeColor=#7700CC;edgeStyle=elbowEdgeStyle;" parent="1" source="byKUF5kAsZpEWGFSxz35-2" target="byKUF5kAsZpEWGFSxz35-6" edge="1">
                    <mxGeometry relative="1" as="geometry">
                        <Array as="points">
                            <mxPoint x="230" y="280"/>
                        </Array>
                    </mxGeometry>
                </mxCell>
                <mxCell id="byKUF5kAsZpEWGFSxz35-2" value="Event B" style="rounded=1;whiteSpace=wrap;html=1;fillColor=#dae8fc;strokeColor=#6c8ebf;fontFamily=varela round;fontSize=14;" parent="1" vertex="1">
                    <mxGeometry x="80" y="180" width="120" height="40" as="geometry"/>
                </mxCell>
                <mxCell id="byKUF5kAsZpEWGFSxz35-12" style="rounded=1;orthogonalLoop=1;jettySize=auto;html=1;entryX=0;entryY=0.5;entryDx=0;entryDy=0;endArrow=blockThin;endFill=1;dashed=1;strokeWidth=1;fontFamily=varela round;fontSize=14;fillColor=#f5f5f5;strokeColor=#808080;" parent="1" source="byKUF5kAsZpEWGFSxz35-3" target="byKUF5kAsZpEWGFSxz35-9" edge="1">
                    <mxGeometry relative="1" as="geometry"/>
                </mxCell>
                <mxCell id="byKUF5kAsZpEWGFSxz35-32" style="rounded=1;orthogonalLoop=1;jettySize=auto;html=1;endArrow=blockThin;endFill=1;strokeWidth=2;fontFamily=varela round;fontSize=14;fontColor=#000000;dashed=1;exitX=1;exitY=0.5;exitDx=0;exitDy=0;entryX=0;entryY=0.5;entryDx=0;entryDy=0;fillColor=#aa00ff;strokeColor=#7700CC;edgeStyle=elbowEdgeStyle;" parent="1" source="byKUF5kAsZpEWGFSxz35-3" target="byKUF5kAsZpEWGFSxz35-6" edge="1">
                    <mxGeometry relative="1" as="geometry">
                        <Array as="points">
                            <mxPoint x="220" y="320"/>
                        </Array>
                    </mxGeometry>
                </mxCell>
                <mxCell id="byKUF5kAsZpEWGFSxz35-3" value="Event C" style="rounded=1;whiteSpace=wrap;html=1;fillColor=#dae8fc;strokeColor=#6c8ebf;fontFamily=varela round;fontSize=14;" parent="1" vertex="1">
                    <mxGeometry x="80" y="260" width="120" height="40" as="geometry"/>
                </mxCell>
                <mxCell id="byKUF5kAsZpEWGFSxz35-13" style="rounded=1;orthogonalLoop=1;jettySize=auto;html=1;entryX=0;entryY=0.5;entryDx=0;entryDy=0;endArrow=blockThin;endFill=1;dashed=1;strokeWidth=2;fontFamily=varela round;fontSize=14;fillColor=#aa00ff;strokeColor=#7700CC;edgeStyle=elbowEdgeStyle;" parent="1" source="byKUF5kAsZpEWGFSxz35-4" target="byKUF5kAsZpEWGFSxz35-6" edge="1">
                    <mxGeometry relative="1" as="geometry"/>
                </mxCell>
                <mxCell id="byKUF5kAsZpEWGFSxz35-4" value="Event D" style="rounded=1;whiteSpace=wrap;html=1;fillColor=#dae8fc;strokeColor=#6c8ebf;fontFamily=varela round;fontSize=14;" parent="1" vertex="1">
                    <mxGeometry x="80" y="340" width="120" height="40" as="geometry"/>
                </mxCell>
                <mxCell id="byKUF5kAsZpEWGFSxz35-5" value="Event Mapping" style="rounded=1;whiteSpace=wrap;html=1;rotation=-90;arcSize=18;fillColor=#f5f5f5;strokeColor=#666666;fontColor=#333333;opacity=80;fontSize=14;fontStyle=1;fontFamily=varela round;strokeWidth=2;" parent="1" vertex="1">
                    <mxGeometry x="140" y="220" width="320" height="40" as="geometry"/>
                </mxCell>
                <mxCell id="byKUF5kAsZpEWGFSxz35-22" style="rounded=1;orthogonalLoop=1;jettySize=auto;html=1;entryX=0;entryY=0.5;entryDx=0;entryDy=0;endArrow=blockThin;endFill=1;exitX=1;exitY=0.5;exitDx=0;exitDy=0;edgeStyle=entityRelationEdgeStyle;strokeWidth=2;fontFamily=varela round;fontSize=14;strokeColor=#808080;" parent="1" source="byKUF5kAsZpEWGFSxz35-28" target="byKUF5kAsZpEWGFSxz35-16" edge="1">
                    <mxGeometry relative="1" as="geometry"/>
                </mxCell>
                <mxCell id="byKUF5kAsZpEWGFSxz35-29" style="edgeStyle=orthogonalEdgeStyle;rounded=1;orthogonalLoop=1;jettySize=auto;html=1;exitX=1;exitY=0.5;exitDx=0;exitDy=0;endArrow=blockThin;endFill=1;strokeWidth=2;fontFamily=varela round;fontSize=14;entryX=0;entryY=0.5;entryDx=0;entryDy=0;strokeColor=#808080;" parent="1" source="byKUF5kAsZpEWGFSxz35-6" target="byKUF5kAsZpEWGFSxz35-28" edge="1">
                    <mxGeometry relative="1" as="geometry"/>
                </mxCell>
                <mxCell id="byKUF5kAsZpEWGFSxz35-6" value="Rules Engine" style="rounded=1;whiteSpace=wrap;html=1;fillColor=#aa00ff;strokeColor=#7700CC;fontColor=#ffffff;fontFamily=varela round;fontSize=14;" parent="1" vertex="1">
                    <mxGeometry x="400" y="340" width="120" height="40" as="geometry"/>
                </mxCell>
                <mxCell id="byKUF5kAsZpEWGFSxz35-18" style="rounded=1;orthogonalLoop=1;jettySize=auto;html=1;entryX=0;entryY=0.5;entryDx=0;entryDy=0;endArrow=blockThin;endFill=1;edgeStyle=entityRelationEdgeStyle;strokeWidth=2;fontFamily=varela round;fontSize=14;strokeColor=#808080;" parent="1" source="byKUF5kAsZpEWGFSxz35-7" target="byKUF5kAsZpEWGFSxz35-15" edge="1">
                    <mxGeometry relative="1" as="geometry"/>
                </mxCell>
                <mxCell id="byKUF5kAsZpEWGFSxz35-7" value="Handler A" style="rounded=1;whiteSpace=wrap;html=1;fillColor=#1ba1e2;strokeColor=#006EAF;fontColor=#ffffff;fontFamily=varela round;fontSize=14;" parent="1" vertex="1">
                    <mxGeometry x="400" y="100" width="120" height="40" as="geometry"/>
                </mxCell>
                <mxCell id="byKUF5kAsZpEWGFSxz35-20" style="rounded=1;orthogonalLoop=1;jettySize=auto;html=1;endArrow=blockThin;endFill=1;entryX=0;entryY=0.5;entryDx=0;entryDy=0;edgeStyle=entityRelationEdgeStyle;strokeWidth=2;fontFamily=varela round;fontSize=14;strokeColor=#808080;" parent="1" source="byKUF5kAsZpEWGFSxz35-8" target="byKUF5kAsZpEWGFSxz35-15" edge="1">
                    <mxGeometry relative="1" as="geometry"/>
                </mxCell>
                <mxCell id="byKUF5kAsZpEWGFSxz35-8" value="Handler B" style="rounded=1;whiteSpace=wrap;html=1;fillColor=#1ba1e2;strokeColor=#006EAF;fontColor=#ffffff;fontFamily=varela round;fontSize=14;" parent="1" vertex="1">
                    <mxGeometry x="400" y="180" width="120" height="40" as="geometry"/>
                </mxCell>
                <mxCell id="byKUF5kAsZpEWGFSxz35-21" style="rounded=1;orthogonalLoop=1;jettySize=auto;html=1;entryX=0;entryY=0.5;entryDx=0;entryDy=0;endArrow=blockThin;endFill=1;edgeStyle=entityRelationEdgeStyle;strokeWidth=2;fontFamily=varela round;fontSize=14;strokeColor=#808080;" parent="1" source="byKUF5kAsZpEWGFSxz35-9" target="byKUF5kAsZpEWGFSxz35-16" edge="1">
                    <mxGeometry relative="1" as="geometry"/>
                </mxCell>
                <mxCell id="byKUF5kAsZpEWGFSxz35-9" value="Handler C" style="rounded=1;whiteSpace=wrap;html=1;fillColor=#1ba1e2;strokeColor=#006EAF;fontColor=#ffffff;fontFamily=varela round;fontSize=14;" parent="1" vertex="1">
                    <mxGeometry x="400" y="260" width="120" height="40" as="geometry"/>
                </mxCell>
                <mxCell id="byKUF5kAsZpEWGFSxz35-14" value="Yaml" style="text;html=1;strokeColor=none;fillColor=none;align=center;verticalAlign=middle;whiteSpace=wrap;rounded=0;fontFamily=varela round;fontSize=14;" parent="1" vertex="1">
                    <mxGeometry x="280" y="380" width="40" height="20" as="geometry"/>
                </mxCell>
                <mxCell id="byKUF5kAsZpEWGFSxz35-15" value="Task A" style="rounded=1;whiteSpace=wrap;html=1;fillColor=#0050ef;strokeColor=#001DBC;fontFamily=varela round;fontSize=14;fontColor=#ffffff;" parent="1" vertex="1">
                    <mxGeometry x="760" y="140" width="120" height="40" as="geometry"/>
                </mxCell>
                <mxCell id="byKUF5kAsZpEWGFSxz35-16" value="Task B" style="rounded=1;whiteSpace=wrap;html=1;fillColor=#0050ef;strokeColor=#001DBC;fontFamily=varela round;fontSize=14;fontColor=#ffffff;" parent="1" vertex="1">
                    <mxGeometry x="760" y="220" width="120" height="40" as="geometry"/>
                </mxCell>
                <mxCell id="byKUF5kAsZpEWGFSxz35-24" value="GitHub Event" style="text;html=1;strokeColor=none;fillColor=none;align=center;verticalAlign=middle;whiteSpace=wrap;rounded=0;opacity=50;fontFamily=varela round;fontSize=18;" parent="1" vertex="1">
                    <mxGeometry x="80" y="10" width="120" height="20" as="geometry"/>
                </mxCell>
                <mxCell id="byKUF5kAsZpEWGFSxz35-26" value="Event Handler" style="text;html=1;strokeColor=none;fillColor=none;align=center;verticalAlign=middle;whiteSpace=wrap;rounded=0;opacity=50;fontFamily=varela round;fontSize=18;" parent="1" vertex="1">
                    <mxGeometry x="375" y="10" width="170" height="20" as="geometry"/>
                </mxCell>
                <mxCell id="byKUF5kAsZpEWGFSxz35-27" value="Task" style="text;html=1;strokeColor=none;fillColor=none;align=center;verticalAlign=middle;whiteSpace=wrap;rounded=0;opacity=50;fontFamily=varela round;fontSize=18;" parent="1" vertex="1">
                    <mxGeometry x="760" y="10" width="120" height="20" as="geometry"/>
                </mxCell>
                <mxCell id="byKUF5kAsZpEWGFSxz35-30" style="edgeStyle=entityRelationEdgeStyle;rounded=1;orthogonalLoop=1;jettySize=auto;html=1;endArrow=blockThin;endFill=1;strokeWidth=2;fontFamily=varela round;fontSize=14;fontColor=#000000;entryX=0;entryY=0.5;entryDx=0;entryDy=0;strokeColor=#808080;" parent="1" source="byKUF5kAsZpEWGFSxz35-28" target="byKUF5kAsZpEWGFSxz35-31" edge="1">
                    <mxGeometry relative="1" as="geometry">
                        <mxPoint x="760" y="460" as="targetPoint"/>
                    </mxGeometry>
                </mxCell>
                <mxCell id="byKUF5kAsZpEWGFSxz35-31" value="Task B" style="rounded=1;whiteSpace=wrap;html=1;fillColor=#0050ef;strokeColor=#001DBC;fontFamily=varela round;fontSize=14;fontColor=#ffffff;" parent="1" vertex="1">
                    <mxGeometry x="760" y="300" width="120" height="40" as="geometry"/>
                </mxCell>
                <mxCell id="byKUF5kAsZpEWGFSxz35-28" value="" style="rounded=1;whiteSpace=wrap;html=1;fillColor=#aa00ff;strokeColor=#7700CC;fontColor=#000000;fontFamily=varela round;fontSize=14;opacity=50;" parent="1" vertex="1">
                    <mxGeometry x="560" y="340" width="120" height="40" as="geometry"/>
                </mxCell>
                <mxCell id="byKUF5kAsZpEWGFSxz35-36" value="" style="rounded=1;whiteSpace=wrap;html=1;fillColor=#aa00ff;strokeColor=#7700CC;fontColor=#000000;fontFamily=varela round;fontSize=14;opacity=50;" parent="1" vertex="1">
                    <mxGeometry x="564" y="345" width="120" height="40" as="geometry"/>
                </mxCell>
                <mxCell id="byKUF5kAsZpEWGFSxz35-37" value="Rules" style="rounded=1;whiteSpace=wrap;html=1;fillColor=#aa00ff;strokeColor=#7700CC;fontColor=#FFFFFF;fontFamily=varela round;fontSize=14;opacity=50;" parent="1" vertex="1">
                    <mxGeometry x="568" y="350" width="120" height="40" as="geometry"/>
                </mxCell>
                <mxCell id="2" value="m:n" style="text;html=1;strokeColor=none;fillColor=none;align=center;verticalAlign=middle;whiteSpace=wrap;rounded=0;opacity=50;fontFamily=varela round;fontSize=16;" vertex="1" parent="1">
                    <mxGeometry x="568" y="60" width="120" height="20" as="geometry"/>
                </mxCell>
                <mxCell id="3" value="m:n" style="text;html=1;strokeColor=none;fillColor=none;align=center;verticalAlign=middle;whiteSpace=wrap;rounded=0;opacity=50;fontFamily=varela round;fontSize=16;" vertex="1" parent="1">
                    <mxGeometry x="270" y="60" width="60" height="20" as="geometry"/>
                </mxCell>
                <mxCell id="4" value="" style="endArrow=none;html=1;rounded=1;fontSize=18;" edge="1" parent="1">
                    <mxGeometry width="50" height="50" relative="1" as="geometry">
                        <mxPoint x="40" y="40" as="sourcePoint"/>
                        <mxPoint x="920" y="40" as="targetPoint"/>
                    </mxGeometry>
                </mxCell>
            </root>
        </mxGraphModel>
    </diagram>
</mxfile>